<svg width="900" height="900" viewBox="0 0 900 900" fill="none" xmlns="http://www.w3.org/2000/svg">
<g clip-path="url(#clip0_2028_535)">
<path d="M0 450C0 201.472 201.472 0 450 0V0C698.528 0 900 201.472 900 450V450C900 698.528 698.528 900 450 900V900C201.472 900 0 698.528 0 450V450Z" fill="white"/>
<path d="M450 8C694.11 8 892 205.89 892 450C892 694.11 694.11 892 450 892C205.89 892 8 694.11 8 450C8 205.89 205.89 8 450 8Z" fill="#82DCDB" fill-opacity="0.2"/>
<path d="M450 8C694.11 8 892 205.89 892 450C892 694.11 694.11 892 450 892C205.89 892 8 694.11 8 450C8 205.89 205.89 8 450 8Z" stroke="#82C64A" stroke-width="16"/>
<path d="M282.66 128C305.629 128 305.629 154.236 305.629 154.236V206.71C305.629 206.71 305.628 232.946 282.659 232.946C259.691 232.946 259.692 206.71 259.692 206.71C259.692 188.408 259.692 172.537 259.692 154.236C259.692 154.236 259.692 128 282.66 128Z" fill="#4094B7"/>
<path d="M617.345 128C640.313 128 640.313 154.236 640.313 154.236V206.71C640.313 206.71 640.312 232.946 617.343 232.946C594.375 232.946 594.376 206.71 594.376 206.71C594.376 188.408 594.376 172.537 594.376 154.236C594.376 154.236 594.376 128 617.345 128Z" fill="#4094B7"/>
<path d="M200.628 180.491H240.003V213.269C240.003 213.269 240.003 252.624 282.659 252.624C325.315 252.624 325.315 213.269 325.315 213.269V180.473L574.688 180.611V213.269C574.688 213.269 577.97 252.624 617.345 252.624C656.719 252.624 660.001 213.269 660.001 213.269V180.611L699.375 180.473C745.313 180.473 765 200.151 765 246.344V279.651L135.069 278.961L135.072 246.065C135.072 200.151 154.691 180.491 200.628 180.491Z" fill="#0A9648"/>
<path d="M349.485 307.246C355.463 304.919 361.03 301.337 367.431 300.214C374.81 299.474 382.678 299.513 389.33 303.227C395.056 305.963 399.195 310.854 403.784 315.057C407.791 315.255 411.216 312.361 415.196 312.096C420.155 311.806 425.405 311.528 430.047 313.63C437.029 316.577 443.72 320.146 450.306 323.873C450.412 324.64 450.61 326.173 450.716 326.939C440.692 327.204 429.901 324.045 420.525 328.909C411.864 333.733 404.207 340.712 394.5 343.435C388.563 344.479 382.493 343.963 376.516 343.726C377.745 337.342 385.164 334.024 385.521 327.349C386.01 322.763 381.501 320.08 378.129 318.031C369.401 312.784 359.298 310.92 349.366 309.545C349.393 308.964 349.446 307.814 349.485 307.246Z" fill="#0A9649"/>
<path fill-rule="evenodd" clip-rule="evenodd" d="M586.996 306.378C598.237 305.268 609.297 309.253 618.713 315.109C632.465 323.872 643.799 335.72 656.229 346.175C673.644 361.862 691.653 376.876 709.293 392.313C727.317 407.645 743.746 422.271 764.997 433.096V597.075C764.997 597.075 742.03 576.699 718.553 567.892C680.362 553.564 639.907 547.101 600.724 536.236C593.887 534.016 584.434 530.908 583.76 522.503C585.811 518.011 590.954 515.961 594.603 512.882C602.405 506.881 610.592 498.647 610.407 488.087C610.764 479.854 605.116 472.995 599.154 467.999C583.761 455.496 564.597 449.283 546.083 443.018C515.377 433.171 483.599 427.025 452.946 416.98C443.28 413.504 433.546 409.868 424.844 404.317C424.844 402.968 424.857 401.617 424.87 400.268C444.282 392.854 462.835 383.312 480.568 372.501C496.979 362.628 513.698 353.136 528.985 341.531C539.26 333.733 549.537 325.924 559.798 318.113C567.718 312.099 576.894 307.092 586.996 306.378ZM593.616 316.934C589.675 316.578 586.231 317.907 583.183 319.829C580.138 321.75 577.367 324.333 574.871 326.485C560.626 338.729 547.454 348.955 533.856 361.221L527.998 366.614L527.921 366.691C527.891 366.722 527.851 366.77 527.8 366.826C527.697 366.938 527.548 367.097 527.377 367.306C527.033 367.725 526.577 368.337 526.095 369.113C525.133 370.66 524.067 372.901 523.698 375.646L523.486 377.196L525.018 376.863C530.589 375.636 535.577 373.086 540.36 370.342C545.174 367.581 549.725 364.651 554.633 362.477L554.639 362.483C556.387 361.784 558.134 360.891 559.907 360.51C561.597 360.148 562.982 360.331 564.079 361.541L564.111 361.573L564.149 361.605C566.081 363.391 568.472 365.72 571.039 368.216C573.601 370.708 576.336 373.366 578.928 375.8C581.515 378.229 583.984 380.454 586.022 382.077C587.039 382.887 587.976 383.568 588.778 384.05C589.178 384.29 589.567 384.499 589.931 384.646C590.284 384.787 590.687 384.902 591.091 384.902C592.58 384.902 593.47 383.753 594.014 382.615C594.577 381.434 594.987 379.826 595.353 378.08C596.101 374.511 596.712 370.158 597.962 366.121C598.643 364.701 600.023 364.011 601.563 364.014C603.149 364.017 604.756 364.768 605.665 366.051L605.729 366.128C615.716 377.795 627.207 388.096 638.099 398.706L638.137 398.738C640.38 400.725 642.851 403.268 645.539 405.156C648.283 407.082 651.438 408.473 655.236 408.153L656.248 408.07L656.235 407.052C656.173 402.094 655.6 396.792 653.185 392.153L652.679 391.237C652.064 390.178 651.389 389.147 650.73 388.143C650.065 387.13 649.415 386.139 648.821 385.132C647.799 383.404 646.969 381.669 646.565 379.79C648.882 379.216 651.127 379.209 653.114 380.316L653.191 380.354C664.237 385.446 675.268 390.813 686.401 395.817C689.306 397.233 692.497 397.517 695.463 397.623L697.77 397.706L696.373 395.868C690.421 388.037 682.192 382.292 674.789 376.383L674.776 376.37C652.507 359.069 630.28 341.725 608.664 323.673L608.606 323.628L605.357 321.238C604.224 320.427 603.044 319.631 601.826 318.958C599.389 317.611 596.673 316.679 593.616 316.934Z" fill="#4094B7"/>
<path d="M260.276 344.401C270.934 338.241 284.04 335.849 296.034 339.008C304.246 341.585 311.453 346.423 318.7 350.93C332.797 360.433 346.351 370.756 359.047 382.083C384.953 402.174 411.335 421.709 438.497 440.108C451.695 448.95 466.228 455.493 479.941 463.463C486.633 467.018 493.761 471.195 497.08 478.372C498.574 481.148 496.63 484.28 494.514 486.104C490.071 489.779 484.438 491.51 479.135 493.519C463.411 499.467 446.974 503.181 431.118 508.666C425.127 511.059 419.018 513.716 414.323 518.262C410.502 521.58 410.885 527.105 410.396 531.691C395.413 525.36 379.121 522.968 363.146 520.562C367.563 516.28 374.783 514.561 377.058 508.389C379.253 501.622 373.368 496.559 369.467 491.946C366.796 488.933 364.667 485.496 362.644 482.047C365.857 477.447 370.274 471.618 366.174 466.093C358.729 457.171 352.236 447.51 345.902 437.768C342.86 432.918 340.48 427.142 335.296 424.154C330.139 421.815 323.54 423.533 320.657 428.569C315.09 437.623 308.901 446.307 303.862 455.678C293.878 438.033 276.805 409.379 273.169 403.152C269.534 396.925 259.69 393.645 253.545 399.795C247.399 405.944 239.157 424.035 231.315 435.759C228.498 440.425 225.086 444.774 222.984 449.823C221.542 454.158 223.91 458.454 225.51 462.379C222.283 467.217 217.866 471.142 214.719 476.019C212.881 481.862 216.319 487.109 219.942 491.352C216.306 496.374 210.923 500.115 208.345 505.864C207.036 513.279 214.309 518.104 220.498 519.981C201.918 521.54 183.391 524.237 165.327 528.995C155.197 531.863 145.199 538.569 135.003 541.226V462.516C153.226 451.691 164.534 442.839 179.715 419.925C194.065 400.204 203.663 391.917 216.769 378.964C229.675 365.654 243.971 353.362 260.276 344.401Z" fill="#82C64A"/>
<path fill-rule="evenodd" clip-rule="evenodd" d="M261.666 409.563C263.014 410.791 264.004 412.351 264.863 413.963C271.806 427.101 280.164 439.421 287.992 452.03C283.669 452.493 279.319 452.428 274.983 452.613C279.096 462.406 288.482 468.408 295.067 476.377C295.477 477.54 295.821 478.73 296.125 479.932C291.246 480.236 286.366 480.145 281.5 480.33C284.37 488.272 290.767 494.207 294.946 501.435C301.135 495.95 306.838 489.869 311.916 483.353C313.7 481.212 314.56 478.558 315.274 475.929C311.941 475.453 308.621 475.017 305.302 474.462C306.175 471.516 307.683 468.832 309.705 466.532C317.56 457.174 322.92 446.043 330.405 436.408C338.286 448.593 347.05 460.146 355.341 472.041C351.176 473.111 346.864 473.297 342.607 473.706C345.119 479.614 349.67 484.278 353.412 489.406C357.154 494.627 362.431 498.807 364.851 504.914C356.824 507.557 348.319 507.334 340.12 509.026C338.97 517.827 339.049 526.813 340.133 535.615C361.49 539.408 383.195 541.541 404.156 547.343C414.985 550.158 425.869 553.036 436.09 557.662C447.542 562.632 459.248 568.063 468.108 577.077C473.556 582.232 473.753 591.237 469.825 597.344C465.832 603.528 459.26 607.293 453.099 611.006C436.635 620.272 418.789 626.766 400.99 632.938C348.901 650.517 295.583 664.447 241.485 674.215C216.491 678.154 157 685.5 138 685.527C137.5 685 135.379 675.86 135 663.5C135 663.5 135.087 591.864 135.133 569.192C134.617 565.968 137.474 564.088 139.497 562.146C150.724 551.546 165.839 546.652 180.359 542.462C205.379 536.356 231.076 533.397 256.731 531.56C256.89 525.242 257.88 518.604 256.372 512.485C245.727 511.744 235.122 510.012 224.662 507.725C224.994 502.731 229.637 500.02 232.506 496.465C236.381 491.575 241.286 487.253 243.375 481.214C237.636 480.738 231.643 481.89 226.168 479.67C233.295 470.392 244.707 464.112 248.887 452.786C244.629 452.43 240.359 452.477 236.101 452.332C238.786 445.79 243.678 440.527 247.182 434.435C252.524 426.439 256.588 417.678 261.666 409.563ZM309.352 506.912C304.833 506.613 300.21 506.75 295.728 508.667C288.433 509.405 281.352 510.56 274.13 510.768L273.124 510.8L273.067 511.799C272.695 518.324 272.551 524.915 273.086 531.477L273.169 532.476H274.169C278.281 532.489 282.367 532.476 286.448 532.463H300.226C303.681 532.518 307.122 532.989 310.66 533.424C314.671 533.918 318.792 534.361 322.984 534.007L323.977 533.924L323.983 532.924C324.036 524.957 324.171 516.945 323.919 508.949L323.887 507.873L322.811 507.892C320.636 507.927 318.424 507.761 316.171 507.546C313.938 507.333 311.629 507.063 309.352 506.912Z" fill="#0A9648"/>
<path d="M482.636 441.124C494.432 443.45 505.633 448.01 517.058 451.671C533.588 458.478 551.163 464.413 564.625 476.652C569.849 481.331 573.922 489.116 570.444 495.989C566.688 503.034 559.415 507.197 552.882 511.348C545.966 515.815 537.265 518.115 532.134 524.935C528.616 529.482 529.753 536.514 534.514 539.726C540.333 543.73 547.209 545.806 553.795 548.238C575.509 555.243 597.752 560.45 619.492 567.363C646.231 576.615 673.579 586.462 695.663 604.742C705.898 612.95 714.322 624.581 715.698 637.918C716.808 649.774 710.633 663.247 703.148 669.468C695.663 675.688 689.531 682.247 650.056 689.383C660 682.247 665.617 677.764 670.286 667.049C675.734 654.545 674.227 639.609 666.954 628.15C657.472 613.069 642.74 601.966 627.004 594.009C618.157 588.67 608.556 584.797 598.744 581.585C604.496 586.528 611.531 589.621 617.456 594.353C628.881 603.354 638.68 614.88 643.944 628.573C648.187 639.613 646.875 646.172 645.081 652.655C635.901 684.37 595.527 747.339 443.5 737.5C548.499 721.102 596.75 629.022 552.049 584.374C507.348 539.726 449.998 544.505 451.678 529.746C453.424 525.358 457.814 522.86 461.861 520.891C474.649 515.075 488.018 510.687 501.216 505.863C511.941 501.95 522.956 497.773 531.697 490.187C534.871 487.543 537.318 483.657 537.146 479.414C536.471 474.009 532.425 469.872 528.259 466.739C514.228 456.231 498.029 449.279 482.636 441.124Z" fill="#82DCDB"/>
<path d="M500.014 570.46C600.935 636.333 500.014 715.043 292.499 692.089C292.499 692.089 548.435 662.57 500.014 570.46Z" fill="#82DCDB"/>
<path d="M181 702C188.5 707.5 195.564 711.763 207.187 711.763H473.039C447 725 411.5 734.72 378 738H207.187C173 738 153 719.5 145.5 704.039C158.909 703.922 170.151 702.604 181 702Z" fill="#4094B7"/>
<path d="M738.747 600.674C754.039 610.654 764.997 619.935 764.997 619.935V659.29C764.997 664.275 764.67 669.098 764.068 673.741L763.869 675.227C758.429 712.793 733.26 738 692.81 738H572.424C598.396 732.011 616.164 723.068 629.717 711.763H692.81C719.058 711.763 738.747 685.525 738.747 659.29V600.674Z" fill="#4094B7"/>
<path d="M161.25 423.283C153.336 429.48 144.844 434.961 135 440.808V305.097H161.25V423.283Z" fill="#4094B7"/>
<path d="M764.997 405.476C755.77 400.776 747.093 395.519 738.747 389.872V305.097H764.997V405.476Z" fill="#4094B7"/>
</g>
<defs>
<clipPath id="clip0_2028_535">
<path d="M0 450C0 201.472 201.472 0 450 0V0C698.528 0 900 201.472 900 450V450C900 698.528 698.528 900 450 900V900C201.472 900 0 698.528 0 450V450Z" fill="white"/>
</clipPath>
</defs>
</svg>
