<svg width="1954" height="611" viewBox="0 0 1954 611" fill="none" xmlns="http://www.w3.org/2000/svg">
<path d="M1471.66 0C1494.63 0 1494.63 26.2362 1494.63 26.2362V78.7096C1494.63 78.7096 1494.63 104.946 1471.66 104.946C1448.69 104.946 1448.69 78.7096 1448.69 78.7096C1448.69 60.4085 1448.69 44.5373 1448.69 26.2362C1448.69 26.2362 1448.69 0 1471.66 0Z" fill="#4094B7"/>
<path d="M1806.34 0C1829.31 0 1829.31 26.2362 1829.31 26.2362V78.7096C1829.31 78.7096 1829.31 104.946 1806.34 104.946C1783.37 104.946 1783.38 78.7096 1783.38 78.7096C1783.38 60.4085 1783.38 44.5373 1783.38 26.2362C1783.38 26.2362 1783.38 0 1806.34 0Z" fill="#4094B7"/>
<path d="M1389.63 52.4908H1429V85.2688C1429 85.2688 1429 124.624 1471.66 124.624C1514.31 124.624 1514.31 85.2686 1514.31 85.2686V52.4731L1763.69 52.6108V85.2688C1763.69 85.2688 1766.97 124.624 1806.34 124.624C1845.72 124.624 1849 85.2688 1849 85.2688V52.6108L1888.38 52.4731C1934.31 52.4731 1954 72.1505 1954 118.344V151.651L1324.07 150.961L1324.07 118.065C1324.07 72.1505 1343.69 52.4908 1389.63 52.4908Z" fill="#0A9648"/>
<path d="M1538.49 179.246C1544.46 176.919 1550.03 173.337 1556.43 172.214C1563.81 171.474 1571.68 171.513 1578.33 175.227C1584.06 177.963 1588.19 182.854 1592.78 187.057C1596.79 187.255 1600.22 184.361 1604.2 184.096C1609.16 183.806 1614.41 183.528 1619.05 185.63C1626.03 188.577 1632.72 192.146 1639.31 195.873C1639.41 196.64 1639.61 198.173 1639.72 198.939C1629.69 199.204 1618.9 196.045 1609.53 200.909C1600.86 205.733 1593.21 212.712 1583.5 215.435C1577.56 216.479 1571.49 215.963 1565.52 215.726C1566.75 209.342 1574.16 206.024 1574.52 199.349C1575.01 194.763 1570.5 192.08 1567.13 190.031C1558.4 184.784 1548.3 182.92 1538.37 181.545C1538.39 180.964 1538.45 179.814 1538.49 179.246Z" fill="#0A9649"/>
<path fill-rule="evenodd" clip-rule="evenodd" d="M1776 178.378C1787.24 177.268 1798.3 181.253 1807.71 187.109C1821.47 195.872 1832.8 207.72 1845.23 218.175C1862.64 233.862 1880.65 248.876 1898.29 264.313C1916.32 279.645 1932.75 294.271 1954 305.096V469.075C1954 469.075 1931.03 448.699 1907.55 439.892C1869.36 425.564 1828.91 419.101 1789.72 408.236C1782.89 406.016 1773.43 402.908 1772.76 394.503C1774.81 390.011 1779.95 387.961 1783.6 384.882C1791.41 378.881 1799.59 370.647 1799.41 360.087C1799.76 351.854 1794.12 344.995 1788.15 339.999C1772.76 327.496 1753.6 321.283 1735.08 315.018C1704.38 305.171 1672.6 299.025 1641.95 288.98C1632.28 285.504 1622.55 281.868 1613.84 276.317C1613.84 274.968 1613.86 273.617 1613.87 272.268C1633.28 264.854 1651.83 255.312 1669.57 244.501C1685.98 234.628 1702.7 225.136 1717.99 213.531C1728.26 205.733 1738.54 197.924 1748.8 190.113C1756.72 184.099 1765.89 179.092 1776 178.378ZM1782.62 188.934C1778.67 188.578 1775.23 189.907 1772.18 191.829C1769.14 193.75 1766.37 196.333 1763.87 198.485C1749.63 210.729 1736.45 220.955 1722.86 233.221L1717 238.614L1716.92 238.691C1716.89 238.722 1716.85 238.77 1716.8 238.826C1716.7 238.938 1716.55 239.097 1716.38 239.306C1716.03 239.725 1715.58 240.337 1715.09 241.113C1714.13 242.66 1713.07 244.901 1712.7 247.646L1712.49 249.196L1714.02 248.863C1719.59 247.636 1724.58 245.086 1729.36 242.342C1734.17 239.581 1738.73 236.651 1743.63 234.477L1743.64 234.483C1745.39 233.784 1747.13 232.891 1748.91 232.51C1750.6 232.148 1751.98 232.331 1753.08 233.541L1753.11 233.573L1753.15 233.605C1755.08 235.391 1757.47 237.72 1760.04 240.216C1762.6 242.708 1765.34 245.366 1767.93 247.8C1770.52 250.229 1772.98 252.454 1775.02 254.077C1776.04 254.887 1776.98 255.568 1777.78 256.05C1778.18 256.29 1778.57 256.499 1778.93 256.646C1779.28 256.787 1779.69 256.902 1780.09 256.902C1781.58 256.902 1782.47 255.753 1783.01 254.615C1783.58 253.434 1783.99 251.826 1784.35 250.08C1785.1 246.511 1785.71 242.158 1786.96 238.121C1787.64 236.701 1789.02 236.011 1790.56 236.014C1792.15 236.017 1793.76 236.768 1794.66 238.051L1794.73 238.128C1804.72 249.795 1816.21 260.096 1827.1 270.706L1827.14 270.738C1829.38 272.725 1831.85 275.268 1834.54 277.156C1837.28 279.082 1840.44 280.473 1844.24 280.153L1845.25 280.07L1845.24 279.052C1845.17 274.094 1844.6 268.792 1842.18 264.153L1841.68 263.237C1841.06 262.178 1840.39 261.147 1839.73 260.143C1839.07 259.13 1838.42 258.139 1837.82 257.132C1836.8 255.404 1835.97 253.669 1835.56 251.79C1837.88 251.216 1840.13 251.209 1842.11 252.316L1842.19 252.354C1853.24 257.446 1864.27 262.813 1875.4 267.817C1878.31 269.233 1881.5 269.517 1884.46 269.623L1886.77 269.706L1885.37 267.868C1879.42 260.037 1871.19 254.292 1863.79 248.383L1863.78 248.37C1841.51 231.069 1819.28 213.725 1797.66 195.673L1797.61 195.628L1794.36 193.238C1793.22 192.427 1792.04 191.631 1790.83 190.958C1788.39 189.611 1785.67 188.679 1782.62 188.934Z" fill="#4094B7"/>
<path d="M1449.28 216.401C1459.93 210.241 1473.04 207.849 1485.03 211.008C1493.25 213.585 1500.45 218.423 1507.7 222.93C1521.8 232.433 1535.35 242.756 1548.05 254.083C1573.95 274.174 1600.33 293.709 1627.5 312.108C1640.69 320.95 1655.23 327.493 1668.94 335.463C1675.63 339.018 1682.76 343.195 1686.08 350.372C1687.57 353.148 1685.63 356.28 1683.51 358.104C1679.07 361.779 1673.44 363.51 1668.13 365.519C1652.41 371.467 1635.97 375.181 1620.12 380.666C1614.13 383.059 1608.02 385.716 1603.32 390.262C1599.5 393.58 1599.89 399.105 1599.4 403.691C1584.41 397.36 1568.12 394.968 1552.15 392.562C1556.56 388.28 1563.78 386.561 1566.06 380.389C1568.25 373.622 1562.37 368.559 1558.47 363.946C1555.8 360.933 1553.67 357.496 1551.64 354.047C1554.86 349.447 1559.27 343.618 1555.17 338.093C1547.73 329.171 1541.24 319.51 1534.9 309.768C1531.86 304.918 1529.48 299.142 1524.3 296.154C1519.14 293.815 1512.54 295.533 1509.66 300.569C1504.09 309.623 1497.9 318.307 1492.86 327.678C1482.88 310.033 1465.8 281.379 1462.17 275.152C1458.53 268.925 1448.69 265.645 1442.54 271.795C1436.4 277.944 1428.16 296.035 1420.32 307.759C1417.5 312.425 1414.09 316.774 1411.98 321.823C1410.54 326.158 1412.91 330.454 1414.51 334.379C1411.28 339.217 1406.87 343.142 1403.72 348.019C1401.88 353.862 1405.32 359.109 1408.94 363.352C1405.31 368.374 1399.92 372.115 1397.34 377.864C1396.04 385.279 1403.31 390.104 1409.5 391.981C1390.92 393.54 1372.39 396.237 1354.33 400.995C1344.2 403.863 1334.2 410.569 1324 413.226V334.516C1342.23 323.691 1353.53 314.839 1368.71 291.925C1383.07 272.204 1392.66 263.917 1405.77 250.964C1418.68 237.654 1432.97 225.362 1449.28 216.401Z" fill="#82C64A"/>
<path fill-rule="evenodd" clip-rule="evenodd" d="M1450.67 281.563C1452.01 282.791 1453 284.351 1453.86 285.963C1460.81 299.101 1469.16 311.421 1476.99 324.03C1472.67 324.493 1468.32 324.428 1463.98 324.613C1468.1 334.406 1477.48 340.408 1484.07 348.377C1484.48 349.54 1484.82 350.73 1485.12 351.932C1480.25 352.236 1475.37 352.145 1470.5 352.33C1473.37 360.272 1479.77 366.207 1483.95 373.435C1490.13 367.95 1495.84 361.869 1500.92 355.353C1502.7 353.212 1503.56 350.558 1504.27 347.929C1500.94 347.453 1497.62 347.017 1494.3 346.462C1495.17 343.516 1496.68 340.832 1498.7 338.532C1506.56 329.174 1511.92 318.043 1519.4 308.408C1527.29 320.593 1536.05 332.146 1544.34 344.041C1540.18 345.111 1535.86 345.297 1531.61 345.706C1534.12 351.614 1538.67 356.278 1542.41 361.406C1546.15 366.627 1551.43 370.807 1553.85 376.914C1545.82 379.557 1537.32 379.334 1529.12 381.026C1527.97 389.827 1528.05 398.813 1529.13 407.615C1550.49 411.408 1572.2 413.541 1593.16 419.343C1603.99 422.158 1614.87 425.036 1625.09 429.662C1636.54 434.632 1648.25 440.063 1657.11 449.077C1662.56 454.232 1662.75 463.237 1658.83 469.344C1654.83 475.528 1648.26 479.293 1642.1 483.006C1625.63 492.272 1607.79 498.766 1589.99 504.938C1537.9 522.517 1484.58 536.447 1430.48 546.215C1405.49 550.154 1346 557.5 1327 557.527C1326.5 557 1324.38 547.86 1324 535.5C1324 535.5 1324.09 463.864 1324.13 441.192C1323.62 437.968 1326.47 436.088 1328.5 434.146C1339.72 423.546 1354.84 418.652 1369.36 414.462C1394.38 408.356 1420.08 405.397 1445.73 403.56C1445.89 397.242 1446.88 390.604 1445.37 384.485C1434.73 383.744 1424.12 382.012 1413.66 379.725C1413.99 374.731 1418.64 372.02 1421.51 368.465C1425.38 363.575 1430.29 359.253 1432.38 353.214C1426.64 352.738 1420.64 353.89 1415.17 351.67C1422.3 342.392 1433.71 336.112 1437.89 324.786C1433.63 324.43 1429.36 324.477 1425.1 324.332C1427.79 317.79 1432.68 312.527 1436.18 306.435C1441.52 298.439 1445.59 289.678 1450.67 281.563ZM1498.35 378.912C1493.83 378.613 1489.21 378.75 1484.73 380.667C1477.43 381.405 1470.35 382.56 1463.13 382.768L1462.12 382.8L1462.07 383.799C1461.7 390.324 1461.55 396.915 1462.09 403.477L1462.17 404.476H1463.17C1467.28 404.489 1471.37 404.476 1475.45 404.463H1489.23C1492.68 404.518 1496.12 404.989 1499.66 405.424C1503.67 405.918 1507.79 406.361 1511.98 406.007L1512.98 405.924L1512.98 404.924C1513.04 396.957 1513.17 388.945 1512.92 380.949L1512.89 379.873L1511.81 379.892C1509.64 379.927 1507.42 379.761 1505.17 379.546C1502.94 379.333 1500.63 379.063 1498.35 378.912Z" fill="#0A9648"/>
<path d="M1671.64 313.124C1683.43 315.45 1694.63 320.01 1706.06 323.671C1722.59 330.478 1740.16 336.413 1753.63 348.652C1758.85 353.331 1762.92 361.116 1759.44 367.989C1755.69 375.034 1748.42 379.197 1741.88 383.348C1734.97 387.815 1726.26 390.115 1721.13 396.935C1717.62 401.482 1718.75 408.514 1723.51 411.726C1729.33 415.73 1736.21 417.806 1742.79 420.238C1764.51 427.243 1786.75 432.45 1808.49 439.363C1835.23 448.615 1862.58 458.462 1884.66 476.742C1894.9 484.95 1903.32 496.581 1904.7 509.918C1905.81 521.774 1899.63 535.247 1892.15 541.468C1884.66 547.688 1878.53 554.247 1839.06 561.383C1849 554.247 1854.62 549.764 1859.29 539.049C1864.73 526.545 1863.23 511.609 1855.95 500.15C1846.47 485.069 1831.74 473.966 1816 466.009C1807.16 460.67 1797.56 456.797 1787.74 453.585C1793.5 458.528 1800.53 461.621 1806.46 466.353C1817.88 475.354 1827.68 486.88 1832.94 500.573C1837.19 511.613 1835.87 518.172 1834.08 524.655C1824.9 556.37 1784.53 619.339 1632.5 609.5C1737.5 593.102 1785.75 501.022 1741.05 456.374C1696.35 411.726 1639 416.505 1640.68 401.746C1642.42 397.358 1646.81 394.86 1650.86 392.891C1663.65 387.075 1677.02 382.687 1690.22 377.863C1700.94 373.95 1711.96 369.773 1720.7 362.187C1723.87 359.543 1726.32 355.657 1726.15 351.414C1725.47 346.009 1721.42 341.872 1717.26 338.739C1703.23 328.231 1687.03 321.279 1671.64 313.124Z" fill="#82DCDB"/>
<path d="M1689.01 442.46C1789.94 508.333 1689.01 587.043 1481.5 564.089C1481.5 564.089 1737.44 534.57 1689.01 442.46Z" fill="#82DCDB"/>
<path d="M1370 574C1377.5 579.5 1384.56 583.763 1396.19 583.763H1662.04C1636 597 1600.5 606.72 1567 610H1396.19C1362 610 1342 591.5 1334.5 576.039C1347.91 575.922 1359.15 574.604 1370 574Z" fill="#4094B7"/>
<path d="M1927.75 472.674C1943.04 482.654 1954 491.935 1954 491.935V531.29C1954 536.275 1953.67 541.098 1953.07 545.741L1952.87 547.227C1947.43 584.793 1922.26 610 1881.81 610H1761.42C1787.4 604.011 1805.16 595.068 1818.72 583.763H1881.81C1908.06 583.763 1927.75 557.525 1927.75 531.29V472.674Z" fill="#4094B7"/>
<path d="M1350.25 295.283C1342.34 301.48 1333.84 306.961 1324 312.808V177.097H1350.25V295.283Z" fill="#4094B7"/>
<path d="M1954 277.476C1944.77 272.776 1936.09 267.519 1927.75 261.872V177.097H1954V277.476Z" fill="#4094B7"/>
<path d="M714.273 375.112C709.111 375.598 706.007 376.832 705.034 378.815C704.399 380.086 704.361 382.33 704.249 414.384C704.137 449.206 704.212 451.45 705.521 454.068C706.119 455.265 708.401 457.322 709.747 457.846C710.271 458.07 711.243 458.482 711.842 458.744C712.739 459.118 721.417 459.23 752.087 459.342C784.552 459.417 791.322 459.529 791.808 459.978C792.631 460.651 792.668 466.561 791.883 470.301C791.584 471.722 791.322 473.667 791.322 474.565C791.322 475.5 791.097 477.183 790.798 478.305C790.499 479.465 790.088 481.223 789.901 482.27C789.676 483.28 789.265 485.225 788.928 486.571C788.591 487.918 788.143 489.75 787.956 490.648C787.731 491.546 787.432 492.481 787.245 492.705C787.095 492.929 786.834 493.528 786.721 494.052C786.534 494.987 785.674 497.455 784.851 499.438C784.253 500.934 780.138 509.087 778.605 511.818C774.64 518.924 763.756 531.716 758.034 536.017C757.323 536.541 756.388 537.289 755.977 537.7C755.565 538.074 754.293 539.084 753.171 539.944C752.049 540.805 749.88 542.413 748.384 543.572C746.888 544.694 744.943 546.153 744.008 546.789C741.203 548.734 738.323 551.838 737.238 554.12C736.34 556.065 736.228 556.663 736.265 560.403C736.265 564.219 736.378 564.78 737.425 567.099C739.594 571.923 743.147 575.551 747.823 577.721C751.974 579.628 755.565 579.441 761.587 576.898C767.496 574.392 774.79 570.427 781.41 566.089C785.076 563.695 785.3 563.508 789.639 559.955C795.249 555.317 797.755 552.886 803.44 546.415C807.891 541.328 807.255 542.151 810.21 537.999C811.557 536.129 812.791 534.446 812.94 534.259C813.352 533.736 814.586 531.641 815.82 529.397C816.718 527.789 817.391 526.517 819.785 522.103C819.972 521.804 820.458 520.682 820.907 519.672C821.319 518.625 822.067 516.942 822.553 515.932C823.002 514.885 823.525 513.65 823.675 513.127C823.825 512.603 824.086 512.005 824.236 511.818C824.386 511.593 824.872 510.359 825.358 509.013C825.844 507.666 826.331 506.394 826.48 506.207C826.63 505.983 827.041 504.973 827.415 503.963C827.752 502.916 828.275 501.569 828.537 500.971C829.622 498.465 831.829 490.424 832.502 486.608C832.689 485.524 833.026 484.29 833.213 483.916C833.437 483.541 833.587 482.719 833.587 482.083C833.587 481.41 833.811 479.764 834.11 478.38C834.97 474.415 835.494 470.301 835.831 464.952C836.018 462.185 836.354 458.07 836.616 455.789C837.14 450.889 836.803 437.387 836.055 433.273C834.97 427.438 832.502 425.044 826.443 423.997C823.264 423.436 819 423.361 787.731 423.361C753.957 423.361 752.498 423.324 750.03 422.613C746.327 421.566 745.13 420.705 743.896 418.125C743.334 416.965 743.26 414.684 743.073 398.301C742.886 380.797 742.848 379.675 742.175 378.665C740.043 375.411 738.547 375.037 726.99 374.925C721.753 374.85 716.031 374.962 714.273 375.112Z" fill="#4094B7"/>
<path d="M933.265 375.074C930.647 375.299 927.318 376.047 925.597 376.757C924.774 377.132 923.69 378.74 923.241 380.311C922.642 382.256 922.493 405.595 922.942 429.944L923.278 450.59L924.213 452.61C925.448 455.265 927.692 457.173 930.796 458.22L933.265 459.08L972.201 459.155C1002.46 459.267 1011.25 459.379 1011.55 459.754C1012 460.315 1011.1 472.134 1010.31 475.911C1009.98 477.333 1009.75 479.053 1009.75 479.689C1009.75 480.325 1009.49 481.597 1009.19 482.457C1008.89 483.317 1008.63 484.439 1008.63 484.925C1008.63 485.412 1008.41 486.347 1008.11 487.02C1007.85 487.693 1006.98 490.087 1006.27 492.368C1004.18 498.727 1003.88 499.475 1001.34 504.562C996.063 515.147 992.922 519.56 983.272 529.92C977.961 535.606 973.435 539.308 962.364 546.976C959.746 548.809 956.903 552.025 955.669 554.569C954.771 556.439 954.659 557.112 954.696 560.254C954.696 563.096 954.883 564.181 955.557 565.677C957.576 570.203 962.7 576.038 966.328 577.908C968.012 578.805 968.76 578.955 971.453 578.955C975.679 578.955 978.559 578.095 984.693 574.99C990.116 572.26 996.026 568.894 996.213 568.408C996.288 568.258 996.512 568.108 996.699 568.108C997.111 568.108 1003.32 563.994 1004.18 563.171C1004.48 562.909 1005.23 562.274 1005.83 561.825C1009.12 559.281 1019.1 549.706 1022.88 545.442C1023.63 544.62 1026.02 541.59 1028.15 538.71C1038.63 524.796 1046.67 507.442 1050.48 490.685C1050.93 488.74 1051.53 486.197 1051.83 485.075C1052.09 483.953 1052.62 481.41 1052.95 479.465C1053.25 477.52 1053.7 475.163 1053.89 474.228C1054.11 473.293 1054.41 470.974 1054.6 469.104C1054.82 467.197 1055.05 465.476 1055.2 465.289C1055.31 465.065 1055.53 461.175 1055.72 456.574C1056.09 446.737 1055.72 433.871 1054.97 431.739C1053.96 428.747 1051.72 426.204 1049.03 424.932C1045.55 423.361 1045.81 423.361 1007.88 423.361C973.959 423.361 971.565 423.324 968.573 422.65C963.486 421.528 961.728 420.07 961.092 416.367C960.868 415.095 960.681 406.979 960.606 396.992C960.568 380.61 960.531 379.712 959.82 378.553C959.035 377.206 957.015 376.084 954.397 375.523C952.228 375.037 937.155 374.738 933.265 375.074Z" fill="#0A9648"/>
<path d="M630.746 374.737C627.903 374.924 625.996 375.223 625.472 375.597C624.948 375.933 623.976 377.691 622.929 380.197C621.283 384.087 620.759 385.621 619.525 390.034C618.104 395.083 617.655 396.654 617.393 397.515C617.206 398.038 616.72 399.609 616.309 401.068C615.261 404.584 612.194 414.533 611.596 416.403C611.147 417.862 610.511 419.919 609.389 423.883C609.127 424.893 608.604 427.1 608.267 428.746C607.93 430.391 607.482 432.486 607.257 433.421C606.584 436.189 606.359 441.537 606.921 442.211C607.519 442.921 609.165 443.744 611.97 444.717C615.336 445.913 622.106 445.876 624.687 444.679C626.482 443.819 628.988 441.612 628.988 440.864C628.988 440.677 629.437 439.63 629.96 438.545C630.484 437.498 631.307 435.403 631.793 433.982C632.279 432.523 632.84 430.952 633.027 430.429C633.252 429.905 633.925 427.736 634.598 425.566C635.272 423.397 635.945 421.265 636.132 420.779C636.319 420.33 637.366 417.226 638.488 413.86C639.648 410.531 640.919 406.865 641.331 405.743C641.78 404.621 642.228 403.349 642.341 402.938C642.415 402.527 642.677 401.853 642.864 401.442C643.5 399.983 646.679 390.52 647.54 387.416C647.876 386.294 648.362 384.611 648.662 383.676C649.821 380.01 648.849 376.42 646.417 375.335C644.921 374.624 636.655 374.325 630.746 374.737Z" fill="#4094B7"/>
<path d="M587.285 376.681C585.115 377.466 585.003 377.579 583.657 380.234C582.422 382.665 581.712 384.947 579.804 392.652C579.28 394.784 578.869 396.28 577.186 402.564C575.765 407.912 574.942 410.942 573.595 415.841C572.959 418.198 572.174 421.078 571.875 422.2C571.576 423.322 571.089 425.155 570.79 426.202C568.284 435.478 567.985 436.787 567.76 439.517C567.573 441.799 567.648 442.173 568.546 443.519C569.144 444.454 569.892 445.09 570.566 445.202C571.127 445.314 572.249 445.614 573.072 445.876C576.176 446.811 584.592 446.25 587.397 444.903C589.267 444.005 590.688 441.873 592.521 437.161C592.858 436.226 593.381 434.954 593.643 434.356C593.905 433.72 594.241 432.672 594.354 432.037C594.503 431.363 594.802 430.728 594.989 430.615C595.176 430.466 595.326 430.054 595.326 429.68C595.326 429.269 595.55 428.409 595.85 427.735C596.112 427.062 596.635 425.491 596.972 424.257C597.346 423.023 597.795 421.489 598.019 420.891C598.206 420.255 598.543 419.17 598.692 418.46C598.842 417.749 599.179 416.627 599.366 416.028C600.488 412.887 602.059 407.575 602.059 407.089C602.059 406.753 602.283 405.967 602.582 405.294C602.844 404.621 603.368 403.05 603.742 401.815C604.116 400.581 604.602 398.898 604.864 398.075C605.425 396.392 606.322 393.25 607.07 390.333C607.37 389.248 607.893 387.416 608.193 386.256C608.978 383.488 608.941 381.319 608.08 379.636C606.435 376.419 604.527 375.821 595.962 375.858C590.314 375.858 589.267 375.97 587.285 376.681Z" fill="#4094B7"/>
<path d="M653.681 423.623C649.23 424.408 645.901 426.503 644.368 429.532L643.395 431.402L643.283 500.597C643.171 576.038 643.059 571.437 645.228 573.756C645.752 574.317 646.986 575.065 647.958 575.402C648.931 575.738 650.016 576.15 650.315 576.262C653.419 577.459 674.589 577.347 678.292 576.112C680.91 575.215 683.416 572.858 683.715 571.063C683.827 570.352 684.089 568.595 684.314 567.173C684.8 563.919 684.501 466.112 683.94 443.558C683.528 426.839 683.566 427.176 680.985 425.455C678.404 423.735 675.225 423.361 664.453 423.398C659.03 423.436 654.205 423.548 653.681 423.623Z" fill="#4094B7"/>
<path d="M867.961 424.034C865.268 424.857 864.108 425.642 862.837 427.55L861.827 429.121V463.718V498.353L862.65 500.036C863.697 502.28 865.118 503.514 867.624 504.375C869.419 505.01 871.065 505.085 881.052 505.197C893.619 505.31 894.816 505.16 898.406 502.916C902.146 500.597 902.034 501.981 902.034 463.419C902.034 426.727 902.146 428.186 899.454 425.942C896.798 423.698 896.312 423.623 882.585 423.51C871.626 423.398 869.793 423.473 867.961 424.034Z" fill="#0A9648"/>
<path d="M1094.1 423.735C1088.6 424.408 1086.02 426.017 1084.41 429.869C1083.92 431.066 1083.81 432.899 1083.81 440.529V449.767L1085.04 451.787C1085.98 453.433 1086.65 454.068 1088.3 454.854C1090.28 455.864 1090.58 455.901 1098.21 456.088C1107.52 456.313 1116.54 456.948 1117.88 457.472C1118.44 457.659 1119.79 457.958 1120.88 458.145C1122 458.295 1123.49 458.669 1124.2 458.931C1132.58 461.96 1135.61 464.915 1137.03 471.423C1137.37 472.844 1137.82 474.976 1138.08 476.098C1138.3 477.295 1138.6 482.532 1138.68 488.441L1138.87 498.764L1137.67 501.682C1135.28 507.404 1130.67 513.239 1124.02 518.962C1121.81 520.869 1110.93 528.275 1109.69 528.724C1109.32 528.873 1108.35 529.434 1107.49 530.033C1106.62 530.594 1105.84 531.08 1105.73 531.08C1105.61 531.08 1104.27 531.828 1102.77 532.763C1101.24 533.698 1099.86 534.446 1099.74 534.446C1099.48 534.446 1093.27 537.326 1091.22 538.411C1090.69 538.71 1089.98 538.935 1089.64 538.935C1089.31 538.935 1088.75 539.084 1088.37 539.309C1087.62 539.757 1084.86 540.73 1083.25 541.141C1082.61 541.291 1081.75 541.628 1081.3 541.852C1080.85 542.114 1080.07 542.301 1079.55 542.301C1079.02 542.301 1078.54 542.45 1078.39 542.637C1078.27 542.824 1077.64 543.124 1076.96 543.273C1075.81 543.498 1074.57 543.984 1071.84 545.256C1070.01 546.116 1067.76 548.21 1066.9 549.931C1065.74 552.175 1065.03 558.758 1065.48 562.76C1065.67 564.593 1065.86 567.211 1065.86 568.595C1065.86 572.036 1067.05 574.392 1069.71 576.15C1071.13 577.048 1080.93 577.496 1089.61 577.048C1093.53 576.823 1097.24 576.524 1097.84 576.337C1098.47 576.15 1099.82 575.888 1100.83 575.739C1101.87 575.626 1102.88 575.365 1103.07 575.215C1103.3 575.065 1104.01 574.803 1104.72 574.654C1106.03 574.392 1113.21 570.801 1115.79 569.156C1124.88 563.321 1137.56 550.679 1146.42 538.598C1147.21 537.551 1147.95 536.69 1148.14 536.69C1148.33 536.69 1148.55 537.251 1148.7 537.925C1148.81 538.561 1149.08 539.533 1149.26 540.057C1149.56 540.917 1150.24 543.198 1151.73 548.659C1154.31 557.823 1157.38 567.211 1158.61 569.792C1159.92 572.485 1161.2 573.943 1163.55 575.552C1165.27 576.674 1165.65 576.786 1170.84 577.197C1180.49 577.983 1196.13 577.496 1198.22 576.3C1198.56 576.15 1199.61 575.664 1200.58 575.215C1202.11 574.579 1202.38 574.28 1202.6 573.12C1202.97 571.138 1202.45 566.089 1201.63 563.658C1201.25 562.498 1199.5 558.608 1197.77 555.018C1196.05 551.427 1194.26 547.462 1193.85 546.228C1193.4 544.994 1192.69 543.049 1192.28 541.927C1191.83 540.805 1191.34 539.346 1191.15 538.71C1191 538.037 1190.78 537.326 1190.63 537.102C1190.33 536.653 1189.7 534.409 1188.54 529.584C1187.6 525.806 1186.89 522.964 1186.29 520.42C1186.03 519.373 1185.69 517.802 1185.54 516.867C1185.39 515.932 1185.1 514.436 1184.87 513.501C1184.23 510.845 1183.64 507.554 1183.3 504.711C1183.11 503.253 1182.81 501.607 1182.59 501.046C1182.36 500.447 1182.18 499.288 1182.18 498.428C1182.14 497.567 1181.92 495.847 1181.62 494.613C1181.32 493.378 1181.06 491.62 1181.06 490.685C1181.06 489.75 1180.79 487.992 1180.49 486.758C1180.2 485.524 1179.93 483.654 1179.93 482.644C1179.93 481.597 1179.67 479.689 1179.37 478.343C1179.07 476.996 1178.85 474.827 1178.81 473.48C1178.81 472.134 1178.55 469.74 1178.25 468.132C1177.95 466.523 1177.69 464.504 1177.69 463.681C1177.69 462.858 1177.43 461.399 1177.13 460.427C1176.83 459.492 1176.16 457.322 1175.63 455.602C1174.29 451.188 1172.42 447.598 1169.54 443.708C1167.1 440.491 1161.42 434.582 1160.78 434.582C1160.6 434.582 1159.81 434.096 1159.06 433.497C1156.07 431.103 1149.04 427.775 1144.03 426.353C1139.35 425.044 1138.19 424.782 1135.61 424.446C1134.19 424.296 1132.17 423.959 1131.12 423.772C1128.99 423.361 1097.5 423.324 1094.1 423.735Z" fill="#0A9648"/>
<path d="M462.181 427.513C461.246 427.663 459.712 427.812 458.777 427.812C456.72 427.85 456.159 428.411 454.962 431.253C454.214 433.123 454.139 434.021 454.027 442.511C453.915 452.947 454.027 453.545 456.795 455.827C458.067 456.874 458.403 456.986 462.144 457.173C464.313 457.285 472.878 457.51 481.181 457.622C493.262 457.809 496.292 457.958 496.479 458.37C496.554 458.632 495.357 460.315 493.749 462.148C488.699 467.908 485.52 473.48 483.426 480.288C480.92 488.367 480.882 489.302 480.882 532.24C480.882 570.353 480.882 570.652 481.668 572.522C482.378 574.205 482.678 574.504 484.922 575.627L487.39 576.823L500.668 576.861C513.048 576.898 514.133 576.861 516.19 576.15C518.509 575.365 520.304 573.906 521.015 572.26C521.314 571.587 521.501 560.03 521.688 533.324C521.875 511.444 522.137 494.575 522.324 493.491C522.549 492.444 522.885 490.536 523.11 489.19C524.867 479.278 530.366 470.675 537.958 465.925C539.754 464.766 546.823 461.138 547.197 461.138C547.571 461.138 553.817 458.071 556.622 456.5L558.866 455.228L559.128 448.383C559.278 444.606 559.278 439.257 559.128 436.564C558.829 431.739 558.792 431.552 557.707 430.43C557.108 429.794 556.024 429.046 555.313 428.71C551.498 427.064 552.321 427.101 506.952 427.139C483.239 427.176 463.116 427.326 462.181 427.513Z" fill="#4094B7"/>
<path d="M164.841 59.3467C172.49 59.1597 180.116 59.0185 187.708 59.2979C198.335 59.6889 208.869 60.5454 219.261 62.7031C230.469 65.0303 241.385 68.2863 252.081 72.3281C254.682 73.311 257.203 74.6767 259.677 76.1602C262.293 77.7291 263.922 79.9594 264.608 83.127C265.537 87.414 265.21 91.4317 263.728 95.5566C261.346 102.181 257.831 108.127 253.263 113.431C249.6 117.682 244.759 118.909 239.337 117.664C234.668 116.592 230.052 115.251 225.39 113.896C223.723 113.411 222.05 112.924 220.373 112.45C213.735 110.573 206.975 109.26 200.095 108.632C199.038 108.535 197.98 108.438 196.922 108.34C189.747 107.678 182.53 107.011 175.295 106.658C163.687 106.092 152.251 107.383 140.906 109.576C121.806 113.269 104.868 121.44 90.0332 133.817C76.2886 145.286 66.7867 159.702 61.4629 176.885C57.6421 189.217 56.6108 201.8 57.9678 214.452C59.7384 230.961 66.1234 245.696 76.7832 258.535C85.0752 268.522 95.0264 276.393 106.38 282.467C112.645 285.819 119.372 287.947 126.133 289.684C132.906 291.423 139.796 292.686 146.785 293.186C154.543 293.74 162.434 293.988 170.314 292.915C170.793 292.85 171.273 292.785 171.752 292.72C176.242 292.11 180.765 291.496 185.264 290.719C202.609 287.721 218.78 281.666 233.063 270.982C234.572 269.854 236.082 268.734 237.6 267.63L239.121 266.531C239.702 266.115 240.23 265.603 240.604 264.932C240.983 264.25 241.151 263.5 241.147 262.688C241.122 256.331 241.112 249.972 241.103 243.611C241.096 239.171 241.088 234.729 241.076 230.288C241.075 229.756 240.905 229.266 240.82 229.001C240.763 228.822 240.711 228.657 240.661 228.467L240.38 227.399L239.277 227.35L238.211 227.293L237.039 227.232C236.641 227.215 236.236 227.204 235.83 227.203C229.241 227.195 222.652 227.191 216.063 227.188C201.68 227.18 187.3 227.174 172.92 227.114C167.833 227.093 162.733 226.868 157.657 226.463C152.384 226.042 148.405 221.953 147.543 216.624C146.322 209.077 146.832 201.536 147.65 193.84C148.058 190.006 151.662 186.15 155.878 185.309C158.483 184.789 161.116 184.422 163.684 184.418C186.315 184.38 208.947 184.378 231.58 184.377C243.865 184.376 256.152 184.376 268.438 184.369C272.337 184.367 276.068 184.798 279.703 186.019C282.54 186.971 284.409 188.367 285.63 190.11C286.863 191.871 287.53 194.119 287.72 196.931C287.887 199.406 287.879 201.903 287.871 204.46C287.869 205.059 287.868 205.663 287.868 206.266C287.875 214.715 287.877 223.165 287.879 231.614C287.885 253.887 287.89 276.164 287.979 298.44C287.992 301.769 288.514 305.088 289.009 308.255L289.305 310.177C290.789 320.067 294.073 329.355 298.356 338.272C299.115 339.852 299.703 341.557 300.024 343.246C300.524 345.865 299.981 348.179 298.708 349.934C297.433 351.692 295.344 352.999 292.558 353.441C288.903 354.021 285.2 354.4 281.525 354.487C274.821 354.647 269.06 353.3 264.202 350.462C259.496 347.713 255.546 343.512 252.396 337.735L252.095 337.171C249.697 332.459 248.626 327.541 247.6 322.418C247.351 321.177 247.173 319.914 246.989 318.601V318.6L246.962 318.398H246.96C246.819 317.393 246.674 316.358 246.487 315.327C246.334 314.478 246.068 313.664 245.805 312.852C245.67 312.435 245.531 312.005 245.391 311.533L244.81 309.578L243.116 310.715C242.727 310.976 242.374 311.211 242.042 311.432C241.399 311.859 240.828 312.238 240.266 312.635C231.633 318.721 222.877 324.383 213.237 328.543C206.106 331.621 198.712 333.879 191.145 335.605C183.513 337.347 175.904 339.038 168.237 340.061C161.824 340.916 155.26 341.03 148.67 341.053C142.259 341.074 135.836 340.737 129.372 340.396H129.373L129.356 340.396H129.355C129.155 340.385 128.954 340.374 128.754 340.363H128.752C128.405 340.345 128.057 340.327 127.71 340.309C124.949 340.164 122.181 339.731 119.34 339.285L119.149 339.255C110.954 337.968 102.867 336.232 94.9395 333.853C78.577 328.94 63.4135 321.718 50.2812 310.854C33.6555 297.099 20.2742 280.771 11.5186 260.955C8.13491 253.297 5.67538 245.355 4.13965 237.1C1.46498 222.722 0.81522 208.285 2.22559 193.74C2.37847 192.164 2.48253 190.584 2.58496 189.031C2.7656 186.294 2.94159 183.64 3.36328 181.038C4.08275 176.598 5.20484 172.19 6.41016 167.774C10.8504 151.507 19.0006 137.096 29.0596 123.528C38.8028 110.386 50.8485 99.7281 64.377 90.582C69.8504 86.8817 75.2882 83.2137 80.9824 80.0605C85.7231 77.4354 90.7954 75.2844 95.9355 73.334C106.56 69.3026 117.217 65.6524 128.351 63.748C130.643 63.3559 132.926 62.9173 135.192 62.4824C139.298 61.6944 143.346 60.9179 147.42 60.4121C153.153 59.7004 158.98 59.49 164.841 59.3467Z" fill="#82C64A" stroke="white" stroke-width="3"/>
<path d="M372.22 140.016C388.175 136.712 404.312 135.791 420.575 136.716C433.29 137.439 445.642 139.434 457.238 144.678C476.84 153.542 490.604 167.604 497.024 188.292C499.126 195.066 500.222 202.03 500.208 209.183C500.136 245.355 500.151 281.529 500.205 317.7C500.209 320.937 499.315 323.538 497.182 325.798C495.99 327.061 494.494 327.796 492.83 328.077C484.899 329.417 476.858 329.223 468.708 328.809C466.95 328.719 465.06 328.085 463.235 327.272C460.506 326.057 458.775 324.014 458.378 321.093C458.011 318.384 457.76 315.698 457.483 312.96L457.193 310.202C457.098 309.348 456.882 308.421 456.663 307.214L456.213 304.737L454.249 306.311C453.113 307.22 452.343 307.838 451.57 308.455C446.563 312.451 441.996 316.578 436.881 320.071C428.789 325.598 419.711 329.031 410.012 331.07C397.461 333.709 384.848 333.493 372.049 332.118C362.061 331.045 352.928 327.973 344.7 322.329C334.158 315.099 326.471 305.709 322.455 293.551C321.702 291.273 321.408 289.005 320.751 286.133C319.481 279.273 319.146 272.735 320.021 266.066C320.857 259.698 322.619 253.699 325.213 247.86C329.383 238.476 336.267 231.414 344.767 225.68C353.723 219.638 363.643 215.782 374.225 213.363C384.557 211.001 395.058 210.064 405.708 209.671C416.532 209.271 427.277 209.979 438.02 211.461C442.994 212.147 448.044 212.57 453.026 213.108L454.246 213.24L454.617 212.07C455.841 208.208 454.551 204.617 453.788 201.859C451.177 192.426 445.705 184.857 436.643 180.438C433.254 178.785 429.578 177.616 425.954 176.789C419.14 175.234 412.093 174.167 404.92 174.768C398.607 175.296 392.075 175.726 385.738 177.027C380.179 178.169 374.667 179.502 369.183 180.847C363.691 182.193 358.231 183.55 352.74 184.748C349.65 185.422 346.918 185.445 344.554 184.644C342.223 183.853 340.097 182.209 338.285 179.259C335.655 174.978 333.624 170.432 332.253 165.603C331.18 161.819 332.229 158.669 335.038 155.928C338.346 152.699 342.402 150.462 346.71 148.319C354.758 144.317 363.346 141.853 372.22 140.016ZM424.236 242.578C419.619 242.565 415.002 242.569 409.777 242.599H409.697L409.618 242.607C407.086 242.891 404.877 243.299 402.55 243.375C394.302 243.644 386.588 245.886 379.321 249.447C368.801 254.603 362.392 267.722 366.537 279.658C369.315 287.658 374.587 293.024 382.375 296.022C390.45 299.132 398.799 299.897 407.26 298.463C411.956 297.667 416.589 296.487 421.125 295.203C430.267 292.614 438.831 288.604 445.477 281.164C449.078 277.133 452.737 272.588 453.889 266.812C455.008 261.203 455.294 255.35 455.878 249.85C455.933 249.334 455.831 248.872 455.756 248.569C455.662 248.189 455.608 248.04 455.55 247.752L455.35 246.741L454.334 246.565C451.376 246.054 448.53 245.601 445.678 245.062C438.661 243.738 431.528 242.599 424.236 242.578Z" fill="#82C64A" stroke="white" stroke-width="3"/>
<path d="M1041.66 141.257C1089.15 141.205 1136.64 141.208 1184.13 141.249C1186.52 141.251 1188.84 141.65 1191.45 141.93C1192.61 142.054 1193.42 142.462 1193.99 143.02C1194.56 143.586 1194.99 144.406 1195.19 145.516C1195.72 148.454 1196.13 151.387 1196.14 154.262C1196.15 159.632 1196.54 164.608 1195.47 169.609C1194.74 173.019 1193.5 176.047 1191.44 178.619C1189.1 181.527 1186.66 184.345 1184.04 186.93C1163.29 207.367 1142.37 227.692 1121.68 248.217C1114.22 255.621 1107.19 263.503 1100.07 271.132C1097.27 274.134 1094.84 277.462 1092.96 281.438L1092.29 282.855L1093.74 283.463C1095.12 284.045 1096.46 284.14 1097.64 284.125C1098.22 284.118 1098.81 284.083 1099.32 284.059C1099.85 284.034 1100.33 284.019 1100.78 284.04C1103.02 284.143 1105.33 284.064 1107.77 284.064C1135.45 284.078 1162.81 284.083 1190.17 284.128C1191.61 284.13 1193.07 284.3 1194.46 284.635C1197.47 285.361 1199.25 287.384 1199.88 290.401C1200.67 294.139 1201.29 297.917 1201.61 301.685C1202.14 307.953 1201.87 314.138 1200.13 320.129C1198.74 324.936 1195.26 327.717 1190.29 328.059C1189.21 328.133 1188.11 328.125 1186.94 328.124C1135.25 328.08 1083.57 328.043 1031.88 327.957C1030.78 327.955 1029.66 327.839 1028.48 327.695C1027.32 327.554 1026.06 327.381 1024.81 327.298C1023.9 327.237 1023.36 326.914 1022.98 326.484C1022.6 326.065 1022.3 325.47 1022.05 324.694L1021.95 324.351C1021.46 322.634 1021.14 320.868 1021.12 319.18C1021.03 311.983 1020.69 305.033 1021.75 298.084C1022.29 294.569 1023.51 291.485 1025.5 288.61C1030.64 281.195 1036.91 274.743 1043.28 268.185C1058.83 252.161 1074.46 236.229 1090.05 220.236C1098.83 211.231 1107.61 202.219 1116.33 193.148C1118.52 190.863 1120.53 188.283 1122.51 185.971L1123.31 185.041L1122.55 184.075C1121.75 183.037 1120.77 182.645 1119.83 182.563C1119.42 182.527 1119.02 182.554 1118.73 182.577C1118.4 182.604 1118.22 182.622 1118.04 182.621C1095.19 182.469 1072.33 182.353 1049.48 182.234C1045.27 182.212 1041.32 182.431 1037.33 182.115C1035.14 181.942 1032.88 181.169 1030.58 180.286C1029.05 179.7 1028.14 178.225 1027.68 176.242C1027.14 173.959 1026.73 171.656 1026.66 169.403C1026.41 162.173 1026.26 155.092 1027.49 148.087C1028.04 144.955 1030.08 142.64 1033.19 142.1C1036.02 141.607 1038.86 141.26 1041.66 141.257Z" fill="#4094B7" stroke="white" stroke-width="3"/>
<path d="M821.285 139.239C827.757 139.085 834.24 139.09 840.718 139.226C843.293 139.28 845.916 139.663 848.522 140.183C850.015 140.481 851.002 141.047 851.646 141.786C852.292 142.526 852.724 143.59 852.829 145.127C853.125 149.496 853.334 153.862 853.337 158.211C853.363 186.822 853.283 215.471 853.328 244.089C853.339 251.506 854.089 258.958 857.04 266.093L857.332 266.784C861.837 277.143 869.391 284.246 880.659 286.626C885.277 287.602 890.116 287.817 894.763 287.665C901.528 287.442 908.201 286.147 914.483 282.996C923.173 278.635 930.177 272.372 935.64 264.477C939.422 259.012 940.712 252.708 940.716 246.314C940.736 216.744 940.721 187.173 940.72 157.605C940.72 155.134 940.771 152.559 940.735 150.035C940.694 147.141 941.46 145.086 942.802 143.701C944.156 142.304 946.297 141.381 949.417 141.173C953.636 140.892 957.835 141.053 962.215 141.041C966.657 141.028 971.008 140.933 975.366 141.096C978.211 141.203 981.072 141.518 983.856 142.061C985.495 142.381 986.321 143.758 986.679 145.925C987.052 148.178 987.166 150.521 987.168 152.881C987.212 204.994 987.232 257.107 987.217 309.22C987.216 312.358 987.164 315.43 986.667 318.373C986.321 320.414 985.769 322.212 984.833 323.619C983.925 324.983 982.618 326.039 980.602 326.575C978.031 327.258 975.651 327.946 973.28 328.07C968.503 328.32 963.817 328.121 958.883 328.172C954.894 328.214 951.114 327.095 947.14 325.762C946.6 325.581 946.238 325.368 945.968 325.119C945.734 324.902 945.515 324.61 945.317 324.172L945.233 323.975C943.53 319.73 942.737 315.322 942.612 310.724C942.547 308.346 942.405 305.948 942.264 302.817L942.125 299.734L939.788 301.747C938.059 303.234 936.747 304.26 935.612 305.361C930.766 310.059 926.099 314.674 920.618 318.328C913.717 322.927 906.366 326.404 898.06 328.297C893.392 329.228 889.289 330.313 885.027 330.826C878.477 331.613 871.829 331.593 865.299 330.809C845.637 328.448 829.609 319.717 818.479 303.17C812.463 294.226 808.749 284.253 807.776 273.44C807.327 268.452 806.971 263.473 806.957 258.519C806.849 222.766 806.828 187.012 806.83 151.256C806.83 149.316 807.197 147.421 807.485 145.239C807.692 143.666 808.312 142.608 809.164 141.861C810.045 141.087 811.277 140.557 812.823 140.251C815.634 139.696 818.481 139.305 821.285 139.239Z" fill="#4094B7" stroke="white" stroke-width="3"/>
<path d="M555.731 53.6211C562.777 53.5386 569.757 53.3832 576.723 53.6465C580.199 53.7779 583.562 54.6657 587.309 55.333C587.868 55.4327 588.115 55.6312 588.285 55.8574C588.505 56.1495 588.696 56.6283 588.87 57.4561C589.656 61.2032 589.734 64.9829 589.741 68.9102V191.683C589.738 232.043 589.729 272.403 589.706 312.763C589.705 315.311 589.317 317.911 588.862 320.562C588.453 322.949 587.423 324.572 586.008 325.725C584.557 326.906 582.604 327.672 580.252 328.14C578.498 328.489 576.687 328.684 574.898 328.717C567.443 328.853 560.035 329.035 552.635 328.884C550.46 328.839 548.129 328.171 545.91 327.288C544.503 326.728 543.501 325.955 542.838 324.997C542.175 324.039 541.775 322.787 541.749 321.14C541.566 309.411 540.973 297.921 540.957 286.279C540.868 220.132 540.901 153.985 540.884 87.835C540.883 85.8109 540.775 83.7649 540.698 81.5166L540.696 81.4717L540.692 81.4258C540.124 75.4489 540.056 69.8311 540.915 64.2637C541.312 61.6926 542.017 59.4629 543.358 57.7529C544.665 56.0879 546.689 54.771 550.031 54.2266C551.98 53.9091 553.874 53.6428 555.731 53.6211Z" fill="#82C64A" stroke="white" stroke-width="3"/>
<path d="M734.173 54.0244C742.335 54.05 750.489 54.168 758.622 54.5322C759.796 54.5848 760.998 54.8384 762.292 55.1729C763.53 55.4932 764.957 55.9179 766.32 56.21C766.495 56.2476 766.586 56.2936 766.626 56.3193C766.662 56.3419 766.682 56.3614 766.699 56.3867C766.747 56.458 766.832 56.6507 766.869 57.126V57.127C767.178 61.1607 767.592 65.04 767.801 68.9961C767.97 72.1888 767.939 75.3939 767.937 78.665C767.897 133.084 767.847 187.504 767.798 242.238V242.241C767.84 268.558 767.85 294.568 767.98 320.576C767.985 321.599 767.833 322.306 767.554 322.879C767.275 323.453 766.811 324.011 766.005 324.643C763.03 326.977 759.486 327.586 755.595 327.98C749.928 328.555 744.205 328.825 738.496 328.848C734.394 328.864 730.381 328.558 726.612 327.235C724.864 326.622 723.461 325.909 722.467 324.942C721.518 324.019 720.867 322.79 720.743 320.949C720.61 318.977 720.356 316.996 720.145 315.104C719.931 313.189 719.756 311.334 719.754 309.496C719.683 229.175 719.682 148.853 719.686 68.5303C719.686 67.5947 719.747 66.6482 719.817 65.6553C719.886 64.6776 719.967 63.6432 719.995 62.6074C720.036 61.0567 720.455 59.8355 721.15 58.8271C721.855 57.8043 722.896 56.924 724.29 56.1533C727.294 54.4916 730.64 54.0134 734.173 54.0244Z" fill="#4094B7" stroke="white" stroke-width="3"/>
<path d="M638.555 141.869C647.736 139.635 656.981 139.44 666.322 140.897C668.601 141.253 670.642 141.448 672.676 141.955C674.469 142.402 675.837 143.174 676.82 144.219C677.8 145.26 678.48 146.657 678.762 148.489C678.999 150.028 679.066 151.631 679.066 153.265C679.078 201.472 679.068 249.678 679.069 297.886C679.069 302.984 679.222 307.929 679.107 312.941C679.038 315.982 678.702 319.047 678.277 322.123C678.213 322.592 677.806 323.258 677.16 324.012C674.149 327.524 669.967 328.794 665.321 328.954C657.719 329.215 650.091 329.189 642.484 328.911C640.013 328.821 637.401 327.987 634.864 326.964C632.861 326.156 631.586 324.521 631.345 322.177C631.088 319.686 630.658 317.668 630.652 315.472C630.573 282.358 630.554 249.244 630.521 215.812L630.516 186.613C630.512 176.932 630.505 167.29 630.485 157.647C630.478 154.067 630.915 150.653 632.126 147.389C633.241 144.383 635.329 142.654 638.555 141.869Z" fill="#82C64A" stroke="white" stroke-width="3"/>
<path d="M643.46 68.8389C651.639 65.3177 659.71 65.4518 667.503 69.8418C673.807 73.3931 678.256 78.2067 679.537 85.3828C679.608 85.7806 679.715 86.1531 679.816 86.4932C679.912 86.8153 680.005 87.1189 680.101 87.4766C680.701 93.4657 680.12 98.8536 677.494 103.888C673.741 111.084 667.756 115.067 659.824 116.28C654.613 117.078 649.528 116.701 644.557 114.738C640.834 113.268 636.989 110.274 634.086 106.458C631.184 102.643 629.321 98.1359 629.357 93.6865C629.403 88.2026 629.838 83.1905 632.36 78.5928C634.864 74.0307 638.707 70.8849 643.46 68.8389Z" fill="#82C64A" stroke="white" stroke-width="3"/>
</svg>
