<svg width="630" height="610" viewBox="0 0 630 610" fill="none" xmlns="http://www.w3.org/2000/svg">
<path d="M147.66 0C170.629 0 170.629 26.2362 170.629 26.2362V78.7096C170.629 78.7096 170.628 104.946 147.659 104.946C124.691 104.946 124.692 78.7096 124.692 78.7096C124.692 60.4085 124.692 44.5373 124.692 26.2362C124.692 26.2362 124.692 0 147.66 0Z" fill="#4094B7"/>
<path d="M482.345 0C505.313 0 505.313 26.2362 505.313 26.2362V78.7096C505.313 78.7096 505.312 104.946 482.343 104.946C459.375 104.946 459.376 78.7096 459.376 78.7096C459.376 60.4085 459.376 44.5373 459.376 26.2362C459.376 26.2362 459.376 0 482.345 0Z" fill="#4094B7"/>
<path d="M65.6279 52.4908H105.003V85.2688C105.003 85.2688 105.003 124.624 147.659 124.624C190.315 124.624 190.315 85.2686 190.315 85.2686V52.4731L439.688 52.6108V85.2688C439.688 85.2688 442.97 124.624 482.345 124.624C521.719 124.624 525.001 85.2688 525.001 85.2688V52.6108L564.375 52.4731C610.313 52.4731 630 72.1505 630 118.344V151.651L0.0688931 150.961L0.0721282 118.065C0.0721282 72.1505 19.6906 52.4908 65.6279 52.4908Z" fill="#0A9648"/>
<path d="M214.485 179.246C220.463 176.919 226.03 173.337 232.431 172.214C239.81 171.474 247.678 171.513 254.33 175.227C260.056 177.963 264.195 182.854 268.784 187.057C272.791 187.255 276.216 184.361 280.196 184.096C285.155 183.806 290.405 183.528 295.047 185.63C302.029 188.577 308.72 192.146 315.306 195.873C315.412 196.64 315.61 198.173 315.716 198.939C305.692 199.204 294.901 196.045 285.525 200.909C276.864 205.733 269.207 212.712 259.5 215.435C253.563 216.479 247.493 215.963 241.516 215.726C242.745 209.342 250.164 206.024 250.521 199.349C251.01 194.763 246.501 192.08 243.129 190.031C234.401 184.784 224.298 182.92 214.366 181.545C214.393 180.964 214.446 179.814 214.485 179.246Z" fill="#0A9649"/>
<path fill-rule="evenodd" clip-rule="evenodd" d="M451.996 178.378C463.237 177.268 474.297 181.253 483.713 187.109C497.465 195.872 508.799 207.72 521.229 218.175C538.644 233.862 556.653 248.876 574.293 264.313C592.317 279.645 608.746 294.271 629.997 305.096V469.075C629.997 469.075 607.03 448.699 583.553 439.892C545.362 425.564 504.907 419.101 465.724 408.236C458.887 406.016 449.434 402.908 448.76 394.503C450.811 390.011 455.954 387.961 459.603 384.882C467.405 378.881 475.592 370.647 475.407 360.087C475.764 351.854 470.116 344.995 464.154 339.999C448.761 327.496 429.597 321.283 411.083 315.018C380.377 305.171 348.599 299.025 317.946 288.98C308.28 285.504 298.546 281.868 289.844 276.317C289.844 274.968 289.857 273.617 289.87 272.268C309.282 264.854 327.835 255.312 345.568 244.501C361.979 234.628 378.698 225.136 393.985 213.531C404.26 205.733 414.537 197.924 424.798 190.113C432.718 184.099 441.894 179.092 451.996 178.378ZM458.616 188.934C454.675 188.578 451.231 189.907 448.183 191.829C445.138 193.75 442.367 196.333 439.871 198.485C425.626 210.729 412.454 220.955 398.856 233.221L392.998 238.614L392.921 238.691C392.891 238.722 392.851 238.77 392.8 238.826C392.697 238.938 392.548 239.097 392.377 239.306C392.033 239.725 391.577 240.337 391.095 241.113C390.133 242.66 389.067 244.901 388.698 247.646L388.486 249.196L390.018 248.863C395.589 247.636 400.577 245.086 405.36 242.342C410.174 239.581 414.725 236.651 419.633 234.477L419.639 234.483C421.387 233.784 423.134 232.891 424.907 232.51C426.597 232.148 427.982 232.331 429.079 233.541L429.111 233.573L429.149 233.605C431.081 235.391 433.472 237.72 436.039 240.216C438.601 242.708 441.336 245.366 443.928 247.8C446.515 250.229 448.984 252.454 451.022 254.077C452.039 254.887 452.976 255.568 453.778 256.05C454.178 256.29 454.567 256.499 454.931 256.646C455.284 256.787 455.687 256.902 456.091 256.902C457.58 256.902 458.47 255.753 459.014 254.615C459.577 253.434 459.987 251.826 460.353 250.08C461.101 246.511 461.712 242.158 462.962 238.121C463.643 236.701 465.023 236.011 466.563 236.014C468.149 236.017 469.756 236.768 470.665 238.051L470.729 238.128C480.716 249.795 492.207 260.096 503.099 270.706L503.137 270.738C505.38 272.725 507.851 275.268 510.539 277.156C513.283 279.082 516.438 280.473 520.236 280.153L521.248 280.07L521.235 279.052C521.173 274.094 520.6 268.792 518.185 264.153L517.679 263.237C517.064 262.178 516.389 261.147 515.73 260.143C515.065 259.13 514.415 258.139 513.821 257.132C512.799 255.404 511.969 253.669 511.565 251.79C513.882 251.216 516.127 251.209 518.114 252.316L518.191 252.354C529.237 257.446 540.268 262.813 551.401 267.817C554.306 269.233 557.497 269.517 560.463 269.623L562.77 269.706L561.373 267.868C555.422 260.037 547.192 254.292 539.789 248.383L539.776 248.37C517.507 231.069 495.28 213.725 473.664 195.673L473.606 195.628L470.357 193.238C469.224 192.427 468.044 191.631 466.826 190.958C464.389 189.611 461.673 188.679 458.616 188.934Z" fill="#4094B7"/>
<path d="M125.276 216.401C135.934 210.241 149.04 207.849 161.034 211.008C169.246 213.585 176.453 218.423 183.7 222.93C197.797 232.433 211.351 242.756 224.047 254.083C249.953 274.174 276.335 293.709 303.497 312.108C316.695 320.95 331.228 327.493 344.941 335.463C351.633 339.018 358.761 343.195 362.08 350.372C363.574 353.148 361.63 356.28 359.514 358.104C355.071 361.779 349.438 363.51 344.135 365.519C328.411 371.467 311.974 375.181 296.118 380.666C290.127 383.059 284.018 385.716 279.323 390.262C275.502 393.58 275.885 399.105 275.396 403.691C260.413 397.36 244.121 394.968 228.146 392.562C232.563 388.28 239.783 386.561 242.058 380.389C244.253 373.622 238.368 368.559 234.467 363.946C231.796 360.933 229.667 357.496 227.644 354.047C230.857 349.447 235.274 343.618 231.174 338.093C223.729 329.171 217.236 319.51 210.902 309.768C207.86 304.918 205.48 299.142 200.296 296.154C195.139 293.815 188.54 295.533 185.657 300.569C180.09 309.623 173.901 318.307 168.862 327.678C158.878 310.033 141.805 281.379 138.169 275.152C134.534 268.925 124.69 265.645 118.545 271.795C112.399 277.944 104.157 296.035 96.315 307.759C93.4983 312.425 90.0865 316.774 87.9839 321.823C86.5424 326.158 88.9095 330.454 90.5097 334.379C87.283 339.217 82.8661 343.142 79.7188 348.019C77.8806 353.862 81.3189 359.109 84.9423 363.352C81.3057 368.374 75.9235 372.115 73.3448 377.864C72.0356 385.279 79.3088 390.104 85.4977 391.981C66.9179 393.54 48.3909 396.237 30.3268 400.995C20.1971 403.863 10.199 410.569 0.00320433 413.226V334.516C18.226 323.691 29.5343 314.839 44.7146 291.925C59.0654 272.204 68.6634 263.917 81.7685 250.964C94.6752 237.654 108.971 225.362 125.276 216.401Z" fill="#82C64A"/>
<path fill-rule="evenodd" clip-rule="evenodd" d="M126.666 281.563C128.014 282.791 129.004 284.351 129.863 285.963C136.806 299.101 145.164 311.421 152.992 324.03C148.669 324.493 144.319 324.428 139.983 324.613C144.096 334.406 153.482 340.408 160.067 348.377C160.477 349.54 160.821 350.73 161.125 351.932C156.246 352.236 151.366 352.145 146.5 352.33C149.37 360.272 155.767 366.207 159.946 373.435C166.135 367.95 171.838 361.869 176.916 355.353C178.7 353.212 179.56 350.558 180.274 347.929C176.941 347.453 173.621 347.017 170.302 346.462C171.175 343.516 172.683 340.832 174.705 338.532C182.56 329.174 187.92 318.043 195.405 308.408C203.286 320.593 212.05 332.146 220.341 344.041C216.176 345.111 211.864 345.297 207.607 345.706C210.119 351.614 214.67 356.278 218.412 361.406C222.154 366.627 227.431 370.807 229.851 376.914C221.824 379.557 213.319 379.334 205.12 381.026C203.97 389.827 204.049 398.813 205.133 407.615C226.49 411.408 248.195 413.541 269.156 419.343C279.985 422.158 290.869 425.036 301.09 429.662C312.542 434.632 324.248 440.063 333.108 449.077C338.556 454.232 338.753 463.237 334.825 469.344C330.832 475.528 324.26 479.293 318.099 483.006C301.635 492.272 283.789 498.766 265.99 504.938C213.901 522.517 160.583 536.447 106.485 546.215C81.4911 550.154 59.067 557.527 0.00480649 557.527C0.00480649 524.881 0.0668611 473.839 0.13298 441.192C-0.382612 437.968 2.47409 436.088 4.49728 434.146C15.724 423.546 30.8395 418.652 45.3589 414.462C70.3789 408.356 96.0761 405.397 121.731 403.56C121.89 397.242 122.88 390.604 121.372 384.485C110.727 383.744 100.122 382.012 89.6619 379.726C89.9941 374.731 94.637 372.02 97.5061 368.465C101.381 363.575 106.286 359.253 108.375 353.214C102.636 352.738 96.6428 353.89 91.168 351.67C98.2951 342.392 109.707 336.112 113.887 324.786C109.629 324.43 105.359 324.477 101.101 324.332C103.786 317.79 108.678 312.527 112.182 306.435C117.524 298.439 121.588 289.678 126.666 281.563ZM174.352 378.912C169.833 378.613 165.21 378.75 160.728 380.667C153.433 381.405 146.352 382.56 139.13 382.768L138.124 382.8L138.067 383.799C137.695 390.324 137.551 396.915 138.086 403.477L138.169 404.476H139.169C143.281 404.489 147.367 404.476 151.448 404.463H165.226C168.681 404.518 172.122 404.989 175.66 405.424C179.671 405.918 183.792 406.361 187.984 406.007L188.977 405.924L188.983 404.924C189.036 396.957 189.171 388.945 188.919 380.949L188.887 379.873L187.811 379.892C185.636 379.927 183.424 379.761 181.171 379.546C178.938 379.333 176.629 379.063 174.352 378.912Z" fill="#0A9648"/>
<path d="M347.636 313.124C359.432 315.45 370.633 320.01 382.058 323.671C398.588 330.478 416.163 336.413 429.625 348.652C434.849 353.331 438.922 361.116 435.444 367.989C431.688 375.034 424.415 379.197 417.882 383.348C410.966 387.815 402.265 390.115 397.134 396.935C393.616 401.482 394.753 408.514 399.514 411.726C405.333 415.73 412.209 417.806 418.795 420.238C440.509 427.243 462.752 432.45 484.492 439.363C511.231 448.615 538.579 458.462 560.663 476.742C570.898 484.95 579.322 496.581 580.697 509.918C581.808 521.774 575.633 535.247 568.148 541.468C560.663 547.688 554.531 554.247 515.056 561.383C525 554.247 530.617 549.764 535.286 539.049C540.734 526.545 539.227 511.609 531.954 500.15C522.472 485.069 507.74 473.966 492.004 466.009C483.157 460.67 473.556 456.797 463.744 453.585C469.496 458.528 476.531 461.621 482.456 466.353C493.881 475.354 503.68 486.88 508.944 500.573C513.187 511.613 511.875 518.172 510.081 524.655C500.901 556.37 460.463 616.559 308.436 606.72C413.435 590.323 461.75 501.022 417.049 456.374C372.349 411.726 314.998 416.505 316.678 401.746C318.424 397.358 322.814 394.86 326.861 392.891C339.649 387.075 353.018 382.687 366.216 377.863C376.941 373.95 387.956 369.773 396.697 362.187C399.871 359.543 402.318 355.657 402.146 351.414C401.471 346.009 397.425 341.872 393.259 338.739C379.228 328.231 363.029 321.279 347.636 313.124Z" fill="#82DCDB"/>
<path d="M365.015 442.46C465.935 508.333 365.015 587.043 157.499 564.089C157.499 564.089 413.435 534.57 365.015 442.46Z" fill="#82DCDB"/>
<path d="M42.3228 576.039C50.2332 581.183 60.5643 583.763 72.1871 583.763H330.802C292.723 598.125 245.865 607.749 190.312 610H72.1871C39.1539 610 16.3014 599.973 6.069 577.159C19.4783 577.043 31.4741 576.643 42.3228 576.039Z" fill="#4094B7"/>
<path d="M603.747 472.674C619.039 482.654 629.997 491.935 629.997 491.935V531.29C629.997 536.275 629.67 541.098 629.068 545.741C627.898 546.377 626.708 547.04 625.479 547.701C626.622 547.546 627.752 547.381 628.869 547.227C623.429 584.793 598.26 610 557.81 610H434.424C460.396 604.011 478.164 595.068 491.717 583.763H557.81C584.058 583.763 603.747 557.525 603.747 531.29V472.674Z" fill="#4094B7"/>
<path d="M26.2499 295.283C18.3356 301.48 9.84351 306.961 0 312.808V177.097H26.2499V295.283Z" fill="#4094B7"/>
<path d="M629.997 277.476C620.77 272.776 612.093 267.519 603.747 261.872V177.097H629.997V277.476Z" fill="#4094B7"/>
</svg>
